<?xml version="1.0" standalone="no"?>
<!DOCTYPE svg PUBLIC "-//W3C//DTD SVG 20010904//EN"
 "http://www.w3.org/TR/2001/REC-SVG-20010904/DTD/svg10.dtd">
<svg version="1.0" xmlns="http://www.w3.org/2000/svg"
 width="216.000000pt" height="216.000000pt" viewBox="0 0 216.000000 216.000000"
 preserveAspectRatio="xMidYMid meet">
<metadata>
Created by potrace 1.14, written by Peter Selinger 2001-2017
</metadata>
<g transform="translate(0.000000,216.000000) scale(0.100000,-0.100000)"
fill="#000000" stroke="none">
<path d="M2002 2063 c3 -12 -78 -166 -133 -256 -27 -43 -49 -82 -49 -87 0 -5
-4 -10 -8 -12 -11 -4 -72 -97 -72 -109 0 -6 -4 -7 -10 -4 -5 3 -10 -1 -10 -9
0 -9 -4 -16 -8 -16 -4 0 -15 -12 -24 -27 -9 -16 -37 -50 -62 -76 -26 -27 -46
-50 -46 -53 0 -2 -34 -37 -75 -79 -41 -41 -75 -73 -75 -70 0 2 -19 -14 -42
-35 -66 -61 -77 -70 -87 -70 -5 0 -11 -3 -13 -7 -8 -20 -156 -115 -281 -181
-42 -23 -79 -42 -82 -42 -2 -1 -31 -12 -62 -27 -32 -14 -65 -27 -73 -28 -8 -2
-16 -4 -17 -5 -2 -2 -6 -3 -10 -4 -5 -1 -18 -7 -30 -14 -13 -7 -23 -11 -23 -8
0 3 -16 -2 -35 -10 -19 -8 -36 -14 -37 -13 -2 0 -10 -2 -18 -5 -23 -7 -74 -20
-85 -21 -5 -1 -21 -5 -35 -10 -14 -4 -36 -9 -50 -11 -14 -1 -25 -3 -25 -4 0
-4 -41 -11 -60 -11 -18 0 -18 -1 -3 -10 10 -5 33 -8 53 -6 19 3 37 2 39 -2 9
-14 362 -3 496 15 138 18 381 86 417 116 7 6 13 8 13 5 0 -10 123 59 179 100
100 73 206 187 268 288 26 41 78 150 75 158 -1 4 3 7 9 7 6 0 9 6 6 14 -3 7
-2 17 3 22 6 7 22 49 37 99 6 19 32 140 39 175 9 54 13 88 19 181 3 47 7 100
10 118 2 22 -1 31 -11 31 -8 0 -13 -3 -12 -7z"/>
<path d="M118 1194 c-37 -7 -73 -16 -78 -19 -6 -4 8 -20 32 -37 98 -70 172
-172 214 -298 10 -30 18 -58 19 -62 1 -16 15 -17 59 -4 25 8 49 15 51 15 3 1
6 1 8 2 1 0 11 2 22 4 26 5 92 24 130 39 17 6 33 11 38 12 4 1 9 3 12 4 3 1 8
3 13 5 7 2 54 20 82 32 8 3 20 7 25 8 13 1 7 28 -8 37 -7 4 -9 8 -5 8 15 0
-126 130 -142 130 -5 0 -10 4 -10 8 0 5 -12 15 -27 23 -16 8 -30 16 -33 19 -9
9 -93 46 -132 59 -82 26 -179 32 -270 15z m233 -81 c7 -20 6 -28 -3 -35 -16
-10 -58 -11 -59 0 0 4 -2 17 -5 30 -2 14 0 21 6 17 5 -3 10 -1 10 4 0 23 41
10 51 -16z"/>
<path d="M2019 1147 c-230 -221 -451 -363 -694 -445 -103 -35 -155 -49 -205
-56 -19 -3 -46 -7 -60 -10 -66 -15 -399 -28 -423 -18 -4 2 -43 6 -85 8 -69 4
-75 3 -57 -9 10 -8 25 -13 32 -10 7 3 13 0 13 -7 0 -6 5 -8 10 -5 6 4 16 2 23
-4 7 -5 24 -12 39 -15 14 -2 38 -12 52 -21 20 -14 26 -14 26 -4 0 9 3 10 8 3
9 -14 186 -70 205 -66 4 1 16 -2 26 -7 9 -6 35 -12 57 -15 21 -3 55 -8 74 -11
19 -4 51 -8 71 -9 20 -2 40 -5 45 -8 22 -10 294 5 316 19 5 2 17 6 28 9 11 2
29 6 41 9 12 2 27 9 33 15 7 5 15 8 18 5 11 -11 178 87 216 128 9 9 20 17 24
17 4 0 31 26 60 57 29 31 61 65 71 75 9 10 14 18 10 18 -5 0 -1 6 7 13 20 16
55 70 52 80 -1 4 2 7 8 7 5 0 17 17 27 38 9 20 19 39 22 42 14 13 40 70 28 64
-17 -11 -169 -126 -186 -142 -25 -24 -23 -4 5 40 16 23 27 46 26 51 -1 4 2 7
6 7 5 0 14 16 22 35 8 19 18 35 24 35 5 0 7 3 3 6 -3 4 0 19 9 35 8 16 14 31
14 34 0 3 7 19 16 36 8 17 14 33 12 35 -2 2 -33 -25 -69 -59z"/>
<path d="M542 468 c43 -61 154 -179 191 -203 8 -5 35 -24 59 -41 24 -17 58
-37 76 -45 18 -7 32 -17 32 -21 0 -5 3 -7 8 -7 4 1 10 0 15 -1 4 -1 10 -4 15
-5 4 -1 23 -8 42 -16 19 -7 38 -12 43 -11 4 1 7 -2 7 -7 0 -5 8 -8 18 -6 9 1
24 -1 32 -5 35 -18 176 -34 300 -33 110 0 220 7 220 13 0 3 15 5 33 4 17 0 37
2 42 5 6 3 17 6 25 6 8 1 29 4 45 8 41 9 98 19 113 20 6 0 12 4 12 9 0 5 3 7
8 5 7 -5 116 22 177 42 25 9 20 10 -25 5 -30 -4 -64 -8 -75 -10 -71 -15 -443
-22 -549 -11 -40 4 -62 22 -29 23 54 2 141 17 228 40 11 3 27 7 35 9 8 2 17 4
20 5 3 1 9 2 13 1 4 -1 17 4 28 10 11 6 28 12 37 14 16 3 159 55 207 75 11 4
54 22 95 39 41 17 62 29 45 27 -16 -2 -32 -5 -35 -7 -3 -1 -9 -3 -15 -4 -5 -1
-22 -5 -36 -9 -14 -4 -34 -9 -45 -11 -10 -2 -19 -4 -19 -6 0 -1 -9 -3 -20 -5
-11 -1 -29 -5 -40 -7 -79 -20 -125 -29 -155 -32 -19 -2 -45 -6 -57 -9 -115
-25 -454 -27 -593 -2 -61 10 -106 18 -115 21 -75 17 -198 56 -212 67 -7 5 -17
7 -23 3 -5 -3 -10 -1 -10 5 0 6 -4 8 -10 5 -5 -3 -10 -1 -10 4 0 6 -9 11 -19
11 -11 0 -27 7 -35 16 -9 8 -16 12 -16 9 0 -4 -21 5 -46 19 -26 14 -49 26 -51
26 -2 0 6 -15 19 -32z m799 -301 c-10 -9 -11 -8 -5 6 3 10 9 15 12 12 3 -3 0
-11 -7 -18z"/>
</g>
</svg>
